<?xml version="1.0" encoding="UTF-8"?>
<svg xmlns="http://www.w3.org/2000/svg" xmlns:xlink="http://www.w3.org/1999/xlink" width="353.69pt" height="437pt" viewBox="0 0 353.69 437" version="1.1">
<defs>
<clipPath id="clip1">
  <path d="M 81 309.898438 L 330.101563 309.898438 L 330.101563 437 L 81 437 Z M 81 309.898438 "/>
</clipPath>
<filter id="alpha" filterUnits="objectBoundingBox" x="0%" y="0%" width="100%" height="100%">
  <feColorMatrix type="matrix" in="SourceGraphic" values="0 0 0 0 1 0 0 0 0 1 0 0 0 0 1 0 0 0 1 0"/>
</filter>
<mask id="mask0">
  <g filter="url(#alpha)">
<rect x="0" y="0" width="353.69" height="437" style="fill:rgb(0%,0%,0%);fill-opacity:0.149994;stroke:none;"/>
  </g>
</mask>
<clipPath id="clip3">
  <path d="M 0.078125 0.925781 L 249.066406 0.925781 L 249.066406 128 L 0.078125 128 Z M 0.078125 0.925781 "/>
</clipPath>
<clipPath id="clip2">
  <rect width="250" height="128"/>
</clipPath>
<g id="surface7" clip-path="url(#clip2)">
<g clip-path="url(#clip3)" clip-rule="nonzero">
<path style=" stroke:none;fill-rule:nonzero;fill:rgb(3.137207%,3.137207%,3.137207%);fill-opacity:1;" d="M 218.375 15 C 148.53125 54.335938 76.109375 84.636719 0.078125 100.234375 L 7.960938 128 L 244.375 132 L 249.066406 46.050781 C 249.066406 29.847656 245.242188 14.53125 238.441406 0.925781 C 232.191406 6.132813 225.652344 10.753906 218.375 15 "/>
</g>
</g>
<clipPath id="clip4">
  <path d="M 66 307 L 353.691406 307 L 353.691406 420 L 66 420 Z M 66 307 "/>
</clipPath>
<clipPath id="clip5">
  <path d="M 147.375 326.59375 L 353.023438 326.59375 L 353.023438 418.664063 L 147.375 418.664063 Z M 147.375 326.59375 "/>
</clipPath>
<mask id="mask1">
  <g filter="url(#alpha)">
<rect x="0" y="0" width="353.69" height="437" style="fill:rgb(0%,0%,0%);fill-opacity:0.0700073;stroke:none;"/>
  </g>
</mask>
<clipPath id="clip7">
  <path d="M 0.375 0.59375 L 206.023438 0.59375 L 206.023438 92.664063 L 0.375 92.664063 Z M 0.375 0.59375 "/>
</clipPath>
<clipPath id="clip6">
  <rect width="207" height="93"/>
</clipPath>
<g id="surface10" clip-path="url(#clip6)">
<g clip-path="url(#clip7)" clip-rule="nonzero">
<path style=" stroke:none;fill-rule:nonzero;fill:rgb(10.205078%,10.205078%,10.205078%);fill-opacity:1;" d="M 179.535156 23.945313 L 79.566406 0.59375 C 55.449219 12.15625 24.042969 28.765625 0.375 41 L 160.457031 90.578125 C 180.332031 97.917969 201.855469 85.171875 205.503906 63.902344 C 208.636719 45.648438 197.214844 28.078125 179.535156 23.945313 "/>
</g>
</g>
<clipPath id="clip8">
  <path d="M 157.855469 195.21875 L 222.371094 195.21875 L 222.371094 230.761719 L 157.855469 230.761719 Z M 157.855469 195.21875 "/>
</clipPath>
<mask id="mask2">
  <g filter="url(#alpha)">
<rect x="0" y="0" width="353.69" height="437" style="fill:rgb(0%,0%,0%);fill-opacity:0.229996;stroke:none;"/>
  </g>
</mask>
<clipPath id="clip10">
  <path d="M 0.855469 0.21875 L 65.371094 0.21875 L 65.371094 35.761719 L 0.855469 35.761719 Z M 0.855469 0.21875 "/>
</clipPath>
<clipPath id="clip9">
  <rect width="66" height="36"/>
</clipPath>
<g id="surface13" clip-path="url(#clip9)">
<g clip-path="url(#clip10)" clip-rule="nonzero">
<path style=" stroke:none;fill-rule:nonzero;fill:rgb(10.205078%,10.205078%,10.205078%);fill-opacity:1;" d="M 65.371094 14.949219 L 60.621094 0.21875 L 2.375 17 L 0.855469 33.433594 C 23.746094 40.132813 49.085938 31.867188 65.371094 14.949219 "/>
</g>
</g>
<clipPath id="clip11">
  <path d="M 133.085938 46.363281 L 261.539063 46.363281 L 261.539063 130.855469 L 133.085938 130.855469 Z M 133.085938 46.363281 "/>
</clipPath>
<mask id="mask3">
  <g filter="url(#alpha)">
<rect x="0" y="0" width="353.69" height="437" style="fill:rgb(0%,0%,0%);fill-opacity:0.130005;stroke:none;"/>
  </g>
</mask>
<clipPath id="clip13">
  <path d="M 0.0859375 0.363281 L 128.539063 0.363281 L 128.539063 84.855469 L 0.0859375 84.855469 Z M 0.0859375 0.363281 "/>
</clipPath>
<clipPath id="clip12">
  <rect width="129" height="85"/>
</clipPath>
<g id="surface16" clip-path="url(#clip12)">
<g clip-path="url(#clip13)" clip-rule="nonzero">
<path style=" stroke:none;fill-rule:nonzero;fill:rgb(3.137207%,3.137207%,3.137207%);fill-opacity:1;" d="M 95.539063 0.5625 C 72.714844 2.386719 53.542969 13.34375 30.71875 17.910156 C 18.125 20.605469 9.078125 15.332031 0.0859375 9.9375 C 7.546875 18.578125 28.671875 26.023438 39.65625 24.660156 C 50.878906 23.269531 61.519531 18.871094 72.648438 16.855469 C 83.773438 14.839844 87.242188 10.164063 95.628906 17.753906 C 101.703125 23.253906 104.59375 31.421875 106.371094 39.421875 C 107.957031 46.550781 103.839844 78.113281 109.023438 83.402344 C 111.785156 86.222656 114.675781 84.640625 117.34375 81.195313 C 116.777344 63.878906 127.058594 47.53125 128.40625 30.691406 C 130.230469 9.691406 112.886719 -1.265625 95.539063 0.5625 "/>
</g>
</g>
<clipPath id="clip14">
  <path d="M 132.597656 26.265625 L 275.421875 26.265625 L 275.421875 127.195313 L 132.597656 127.195313 Z M 132.597656 26.265625 "/>
</clipPath>
<mask id="mask4">
  <g filter="url(#alpha)">
<rect x="0" y="0" width="353.69" height="437" style="fill:rgb(0%,0%,0%);fill-opacity:0.0700073;stroke:none;"/>
  </g>
</mask>
<clipPath id="clip16">
  <path d="M 0.597656 0.265625 L 143.421875 0.265625 L 143.421875 101.195313 L 0.597656 101.195313 Z M 0.597656 0.265625 "/>
</clipPath>
<clipPath id="clip15">
  <rect width="144" height="102"/>
</clipPath>
<g id="surface19" clip-path="url(#clip15)">
<g clip-path="url(#clip16)" clip-rule="nonzero">
<path style=" stroke:none;fill-rule:nonzero;fill:rgb(3.137207%,3.137207%,3.137207%);fill-opacity:1;" d="M 142.8125 15.769531 C 141.398438 9.679688 136.480469 3.949219 130.234375 3.652344 C 130.382813 3.609375 130.519531 3.546875 130.660156 3.492188 C 117.816406 1.84375 104.59375 -2.152344 91.972656 2.304688 C 62.09375 11.355469 34.007813 36.570313 0.59375 27.1875 C 0.621094 28.050781 0.726563 28.894531 0.898438 29.714844 C 0.960938 29.789063 1.019531 29.863281 1.085938 29.9375 C 10.078125 35.328125 19.125 40.605469 31.714844 37.910156 C 54.542969 33.34375 73.714844 22.386719 96.539063 20.5625 C 113.886719 18.734375 131.230469 29.691406 129.40625 50.691406 C 128.058594 67.53125 117.777344 83.878906 118.339844 101.195313 C 122.988281 95.1875 126.953125 83.503906 128.363281 79.449219 C 133.511719 64.640625 137.894531 49.566406 141.488281 34.304688 C 142.917969 28.21875 144.226563 21.859375 142.8125 15.769531 "/>
</g>
</g>
<clipPath id="clip17">
  <path d="M 35.871094 327 L 197.375 327 L 197.375 359.480469 L 35.871094 359.480469 Z M 35.871094 327 "/>
</clipPath>
<mask id="mask5">
  <g filter="url(#alpha)">
<rect x="0" y="0" width="353.69" height="437" style="fill:rgb(0%,0%,0%);fill-opacity:0.0700073;stroke:none;"/>
  </g>
</mask>
<clipPath id="clip19">
  <path d="M 0.871094 0 L 162.375 0 L 162.375 32.480469 L 0.871094 32.480469 Z M 0.871094 0 "/>
</clipPath>
<clipPath id="clip18">
  <rect width="163" height="33"/>
</clipPath>
<g id="surface18" clip-path="url(#clip18)">
<g clip-path="url(#clip19)" clip-rule="nonzero">
<path style=" stroke:none;fill-rule:nonzero;fill:rgb(10.205078%,10.205078%,10.205078%);fill-opacity:1;" d="M 11.882813 32.480469 L 162.371094 0 L 0.871094 16.242188 L 5.078125 26.296875 Z M 11.882813 32.480469 "/>
</g>
</g>
</defs>
<g id="surface1">
<path style=" stroke:none;fill-rule:nonzero;fill:rgb(39.988708%,39.988708%,39.988708%);fill-opacity:1;" d="M 325.375 441 L 88.960938 437 L 65.695313 355.050781 C 65.695313 298.6875 111.917969 253 168.9375 253 L 226.824219 253 C 283.84375 253 330.066406 298.6875 330.066406 355.050781 "/>
<g clip-path="url(#clip1)" clip-rule="nonzero">
<use xlink:href="#surface7" transform="matrix(1,0,0,1,81,309)" mask="url(#mask0)"/>
</g>
<g clip-path="url(#clip4)" clip-rule="nonzero">
<path style=" stroke:none;fill-rule:nonzero;fill:rgb(99.21875%,70.896912%,52.929688%);fill-opacity:1;" d="M 353.328125 389.464844 C 350.277344 410.828125 329.113281 424.171875 309.042969 417.394531 L 66.714844 340.578125 L 66.785156 307.5625 L 326.25 350.253906 C 344.035156 353.886719 355.945313 371.132813 353.328125 389.464844 "/>
</g>
<g clip-path="url(#clip5)" clip-rule="nonzero">
<use xlink:href="#surface10" transform="matrix(1,0,0,1,147,326)" mask="url(#mask1)"/>
</g>
<path style=" stroke:none;fill-rule:nonzero;fill:rgb(99.21875%,70.896912%,52.929688%);fill-opacity:1;" d="M 159.375 212 L 153.375 277 L 179.351563 295.375 C 188.351563 301.742188 200.394531 301.738281 209.390625 295.363281 L 242.375 272 L 217.621094 195.21875 "/>
<g clip-path="url(#clip8)" clip-rule="nonzero">
<use xlink:href="#surface13" transform="matrix(1,0,0,1,157,195)" mask="url(#mask2)"/>
</g>
<path style=" stroke:none;fill-rule:nonzero;fill:rgb(99.21875%,70.896912%,52.929688%);fill-opacity:1;" d="M 243.832031 117.609375 C 248.609375 113.8125 253.96875 110.75 259.664063 108.558594 C 261.828125 107.726563 264.410156 107.0625 266.339844 108.347656 C 268.113281 109.53125 268.601563 111.902344 268.742188 114.03125 C 269.597656 126.917969 262.796875 140.027344 251.765625 146.742188 C 250.175781 147.710938 248.457031 148.570313 246.601563 148.730469 C 241.667969 149.15625 237.648438 144.523438 236.171875 139.796875 C 233.277344 130.542969 237.332031 119.582031 245.550781 114.4375 "/>
<path style=" stroke:none;fill-rule:nonzero;fill:rgb(83.59375%,59.959412%,45.092773%);fill-opacity:1;" d="M 136.519531 127.304688 C 132.609375 123.132813 132.195313 116.910156 130.574219 111.429688 C 128.953125 105.949219 124.421875 100.128906 118.804688 101.175781 C 115.070313 101.867188 112.464844 105.570313 111.925781 109.328125 C 111.390625 113.085938 112.507813 116.878906 113.839844 120.433594 C 116.789063 128.296875 120.863281 135.738281 125.898438 142.460938 C 127.242188 144.253906 128.945313 146.148438 131.183594 146.214844 C 133.445313 146.28125 135.3125 144.398438 136.375 142.398438 C 139.433594 136.65625 137.847656 128.847656 132.792969 124.75 "/>
<path style=" stroke:none;fill-rule:nonzero;fill:rgb(99.21875%,70.896912%,52.929688%);fill-opacity:1;" d="M 240.515625 130.304688 C 240.84375 147.996094 241.566406 166.738281 233.191406 182.15625 C 224.6875 197.8125 208.464844 206.949219 192.980469 215.035156 C 186.988281 218.164063 180.789063 221.316406 174.097656 221.855469 C 160.359375 222.960938 147.726563 212.457031 141.535156 199.703125 C 135.347656 186.945313 134.25 172.28125 133.265625 158.039063 C 131.59375 133.898438 129.921875 109.761719 128.246094 85.621094 C 127.484375 74.625 127.066406 62.433594 133.8125 53.90625 C 138.191406 48.367188 144.875 45.417969 151.429688 43.144531 C 174.460938 35.160156 222.625 24.667969 238.789063 51.675781 C 243.851563 60.125 242.09375 70.804688 241.488281 80.179688 C 240.410156 96.867188 240.203125 113.582031 240.515625 130.304688 "/>
<path style=" stroke:none;fill-rule:nonzero;fill:rgb(8.616638%,70.896912%,52.929688%);fill-opacity:1;" d="M 239.371094 85.421875 C 237.59375 77.421875 234.703125 69.253906 228.628906 63.753906 C 220.242188 56.164063 216.773438 60.839844 205.648438 62.855469 C 194.519531 64.871094 183.878906 69.269531 172.65625 70.660156 C 161.433594 72.054688 139.613281 64.25 132.605469 55.371094 C 130.179688 68.835938 132.535156 101.945313 130.105469 115.410156 C 125.65625 98.027344 119.128906 60.3125 120.175781 42.394531 C 120.410156 38.320313 120.828125 34.128906 122.738281 30.519531 C 124.921875 26.386719 128.820313 23.464844 132.730469 20.898438 C 168.390625 -2.492188 215.933594 -6.59375 255.078125 10.34375 C 259.222656 12.136719 263.527344 14.386719 265.683594 18.355469 C 267.839844 22.324219 266.570313 28.394531 262.234375 29.652344 C 268.480469 29.945313 273.398438 35.679688 274.8125 41.769531 C 276.226563 47.859375 274.921875 54.21875 273.488281 60.304688 C 269.894531 75.566406 265.511719 90.640625 260.363281 105.449219 C 258.144531 111.832031 249.597656 137.132813 242.023438 129.402344 C 236.839844 124.113281 240.957031 92.550781 239.371094 85.421875 "/>
<g clip-path="url(#clip11)" clip-rule="nonzero">
<use xlink:href="#surface16" transform="matrix(1,0,0,1,133,46)" mask="url(#mask3)"/>
</g>
<g clip-path="url(#clip14)" clip-rule="nonzero">
<use xlink:href="#surface19" transform="matrix(1,0,0,1,132,26)" mask="url(#mask4)"/>
</g>
<path style=" stroke:none;fill-rule:nonzero;fill:rgb(8.616638%,70.896912%,52.929688%);fill-opacity:1;" d="M 148.578125 87.511719 C 146.355469 88.46875 144.335938 89.835938 142.335938 91.195313 C 139.976563 92.789063 137.621094 94.390625 135.265625 95.988281 C 138.425781 95.648438 141.558594 95.050781 144.621094 94.199219 C 147.449219 93.417969 150.246094 92.414063 153.171875 92.144531 C 157.046875 91.789063 173.6875 97.898438 170.203125 90.125 C 167.355469 83.765625 153.519531 85.386719 148.578125 87.511719 "/>
<path style=" stroke:none;fill-rule:nonzero;fill:rgb(8.616638%,70.896912%,52.929688%);fill-opacity:1;" d="M 216.78125 87.511719 C 219.007813 88.46875 221.023438 89.835938 223.027344 91.195313 C 225.386719 92.789063 227.742188 94.390625 230.097656 95.988281 C 226.9375 95.648438 223.804688 95.050781 220.738281 94.199219 C 217.910156 93.417969 215.113281 92.414063 212.191406 92.144531 C 208.316406 91.789063 191.675781 97.898438 195.15625 90.125 C 198.007813 83.765625 211.839844 85.386719 216.78125 87.511719 "/>
<path style=" stroke:none;fill-rule:nonzero;fill:rgb(3.137207%,3.137207%,3.137207%);fill-opacity:1;" d="M 211.542969 108.488281 C 211.382813 103.722656 209.046875 99.933594 206.320313 100.023438 C 203.597656 100.113281 201.519531 104.050781 201.679688 108.816406 C 201.839844 113.585938 204.175781 117.375 206.898438 117.28125 C 209.621094 117.191406 211.699219 113.253906 211.542969 108.488281 "/>
<path style=" stroke:none;fill-rule:nonzero;fill:rgb(3.137207%,3.137207%,3.137207%);fill-opacity:1;" d="M 162.605469 110.128906 C 162.445313 105.359375 160.109375 101.570313 157.386719 101.664063 C 154.664063 101.753906 152.585938 105.691406 152.742188 110.457031 C 152.902344 115.222656 155.242188 119.011719 157.964844 118.921875 C 160.6875 118.828125 162.765625 114.894531 162.605469 110.128906 "/>
<path style=" stroke:none;fill-rule:nonzero;fill:rgb(100%,100%,100%);fill-opacity:1;" d="M 167.195313 190.886719 C 174.066406 197.050781 184.355469 196.714844 190.257813 189.375 C 192.445313 186.652344 188.59375 182.753906 186.382813 185.5 C 182.425781 190.421875 175.910156 191.359375 171.070313 187.015625 C 168.449219 184.664063 164.5625 188.527344 167.195313 190.886719 "/>
<path style=" stroke:none;fill-rule:nonzero;fill:rgb(100%,100%,100%);fill-opacity:1;" d="M 293.511719 365.902344 L 302.511719 366.066406 L 301.898438 399.558594 C 301.855469 402.046875 299.800781 404.023438 297.316406 403.976563 C 294.832031 403.929688 292.855469 401.878906 292.898438 399.394531 "/>
<path style=" stroke:none;fill-rule:nonzero;fill:rgb(11.376953%,89.451599%,67.381287%);fill-opacity:1;" d="M 296.929688 342.960938 L 299.683594 343.011719 C 306.28125 343.128906 311.582031 348.628906 311.460938 355.226563 L 311.296875 364.226563 C 311.175781 370.824219 305.679688 376.125 299.078125 376.003906 L 296.328125 375.953125 C 289.730469 375.832031 284.429688 370.335938 284.550781 363.734375 L 284.714844 354.738281 C 284.835938 348.140625 290.332031 342.839844 296.929688 342.960938 "/>
<path style=" stroke:none;fill-rule:nonzero;fill:rgb(10.205078%,10.205078%,10.205078%);fill-opacity:1;" d="M 340.386719 376.777344 L 338.699219 377.855469 C 333.585938 381.128906 326.78125 379.640625 323.503906 374.527344 L 317.03125 364.421875 C 313.753906 359.304688 315.246094 352.5 320.363281 349.222656 L 322.046875 348.144531 C 327.160156 344.871094 333.964844 346.359375 337.242188 351.472656 L 343.714844 361.582031 C 346.992188 366.695313 345.5 373.5 340.386719 376.777344 "/>
<path style=" stroke:none;fill-rule:nonzero;fill:rgb(100%,100%,100%);fill-opacity:1;" d="M 337.246094 366.316406 C 338.589844 368.410156 337.976563 371.191406 335.886719 372.53125 C 333.792969 373.875 331.011719 373.261719 329.671875 371.167969 C 328.328125 369.078125 328.9375 366.292969 331.03125 364.953125 C 333.125 363.613281 335.90625 364.222656 337.246094 366.316406 "/>
<path style=" stroke:none;fill-rule:nonzero;fill:rgb(11.376953%,89.451599%,67.381287%);fill-opacity:1;" d="M 330.234375 355.367188 C 331.578125 357.460938 330.964844 360.246094 328.875 361.585938 C 326.78125 362.925781 323.996094 362.316406 322.65625 360.222656 C 321.316406 358.132813 321.925781 355.347656 324.019531 354.007813 C 326.113281 352.667969 328.894531 353.277344 330.234375 355.367188 "/>
<path style=" stroke:none;fill-rule:nonzero;fill:rgb(99.21875%,70.896912%,52.929688%);fill-opacity:1;" d="M 311.375 361 C 298.722656 361 288.375 350.648438 288.375 338 L 288.375 327 C 288.375 314.351563 298.722656 304 311.375 304 C 324.023438 304 334.375 314.351563 334.375 327 L 334.375 338 C 334.375 350.648438 324.023438 361 311.375 361 "/>
<path style=" stroke:none;fill-rule:nonzero;fill:rgb(99.21875%,70.896912%,52.929688%);fill-opacity:1;" d="M 54.613281 362.347656 C 42.152344 360.164063 33.746094 348.183594 35.929688 335.722656 L 37.828125 324.890625 C 40.011719 312.429688 51.992188 304.019531 64.453125 306.203125 L 95.375 312 L 81.238281 343.660156 C 79.054688 356.121094 67.074219 364.53125 54.613281 362.347656 "/>
<path style=" stroke:none;fill-rule:nonzero;fill:rgb(99.21875%,70.896912%,52.929688%);fill-opacity:1;" d="M 45.75 331.355469 L 5.5 323.316406 C 1.8125 322.578125 -0.605469 318.960938 0.132813 315.269531 C 0.867188 311.578125 4.492188 309.164063 8.179688 309.898438 L 48.429688 317.9375 C 52.121094 318.675781 54.535156 322.296875 53.796875 325.988281 C 53.0625 329.675781 49.441406 332.09375 45.75 331.355469 "/>
<path style=" stroke:none;fill-rule:nonzero;fill:rgb(99.21875%,70.896912%,52.929688%);fill-opacity:1;" d="M 49.707031 320.332031 L 15.105469 298.253906 C 11.933594 296.230469 10.996094 291.980469 13.019531 288.808594 C 15.042969 285.636719 19.292969 284.695313 22.464844 286.722656 L 57.066406 308.796875 C 60.238281 310.820313 61.179688 315.070313 59.152344 318.242188 C 57.132813 321.414063 52.878906 322.355469 49.707031 320.332031 "/>
<g clip-path="url(#clip17)" clip-rule="nonzero">
<use xlink:href="#surface18" transform="matrix(1,0,0,1,35,327)" mask="url(#mask5)"/>
</g>
<path style=" stroke:none;fill-rule:nonzero;fill:rgb(99.21875%,70.896912%,52.929688%);fill-opacity:1;" d="M 34.652344 389.148438 C 38.554688 410.378906 59.457031 423.046875 78.386719 415.664063 L 304.375 340 L 309.375 304 L 58.816406 349.175781 C 41.929688 353.351563 31.300781 370.929688 34.652344 389.148438 "/>
</g>
</svg>
