<?xml version="1.0" encoding="UTF-8"?>
<svg xmlns="http://www.w3.org/2000/svg" xmlns:xlink="http://www.w3.org/1999/xlink" width="391.09pt" height="438.85pt" viewBox="0 0 391.09 438.85" version="1.1">
<defs>
<clipPath id="clip1">
  <path d="M 91 262 L 330 262 L 330 438.851563 L 91 438.851563 Z M 91 262 "/>
</clipPath>
<clipPath id="clip2">
  <path d="M 132.671875 343.992188 L 357.453125 343.992188 L 357.453125 438.851563 L 132.671875 438.851563 Z M 132.671875 343.992188 "/>
</clipPath>
<filter id="alpha" filterUnits="objectBoundingBox" x="0%" y="0%" width="100%" height="100%">
  <feColorMatrix type="matrix" in="SourceGraphic" values="0 0 0 0 1 0 0 0 0 1 0 0 0 0 1 0 0 0 1 0"/>
</filter>
<mask id="mask0">
  <g filter="url(#alpha)">
<rect x="0" y="0" width="391.09" height="438.85" style="fill:rgb(0%,0%,0%);fill-opacity:0.149994;stroke:none;"/>
  </g>
</mask>
<clipPath id="clip4">
  <path d="M 0.671875 0.992188 L 225.453125 0.992188 L 225.453125 95.851563 L 0.671875 95.851563 Z M 0.671875 0.992188 "/>
</clipPath>
<clipPath id="clip3">
  <rect width="226" height="96"/>
</clipPath>
<g id="surface7" clip-path="url(#clip3)">
<g clip-path="url(#clip4)" clip-rule="nonzero">
<path style=" stroke:none;fill-rule:nonzero;fill:rgb(3.137207%,3.137207%,3.137207%);fill-opacity:1;" d="M 196.578125 95.851563 L 196.578125 73.601563 C 205.3125 71.132813 214.0625 68.65625 222.808594 66.15625 L 225.453125 0.992188 C 153.574219 44.253906 79.230469 77.769531 0.671875 95.851563 "/>
</g>
</g>
<clipPath id="clip5">
  <path d="M 90.578125 275.238281 L 358.714844 275.238281 L 358.714844 438.851563 L 90.578125 438.851563 Z M 90.578125 275.238281 "/>
</clipPath>
<mask id="mask1">
  <g filter="url(#alpha)">
<rect x="0" y="0" width="391.09" height="438.85" style="fill:rgb(0%,0%,0%);fill-opacity:0.0700073;stroke:none;"/>
  </g>
</mask>
<clipPath id="clip7">
  <path d="M 0.578125 0.238281 L 268.714844 0.238281 L 268.714844 163.851563 L 0.578125 163.851563 Z M 0.578125 0.238281 "/>
</clipPath>
<clipPath id="clip6">
  <rect width="269" height="164"/>
</clipPath>
<g id="surface10" clip-path="url(#clip6)">
<g clip-path="url(#clip7)" clip-rule="nonzero">
<path style=" stroke:none;fill-rule:nonzero;fill:rgb(3.137207%,3.137207%,3.137207%);fill-opacity:1;" d="M 247.976563 19.503906 L 250.578125 4.851563 C 246.78125 3.609375 240.605469 1.945313 233.171875 0.238281 C 167.425781 69.523438 89.039063 125.390625 0.578125 161.808594 L 0.578125 163.851563 L 42.671875 163.851563 C 121.230469 145.769531 195.574219 112.253906 267.453125 68.992188 L 268.046875 54.378906 C 271.261719 39.328125 262.601563 24.28125 247.976563 19.503906 "/>
</g>
</g>
<clipPath id="clip8">
  <path d="M 172.578125 157.980469 L 235.457031 157.980469 L 235.457031 223.859375 L 172.578125 223.859375 Z M 172.578125 157.980469 "/>
</clipPath>
<mask id="mask2">
  <g filter="url(#alpha)">
<rect x="0" y="0" width="391.09" height="438.85" style="fill:rgb(0%,0%,0%);fill-opacity:0.229996;stroke:none;"/>
  </g>
</mask>
<clipPath id="clip10">
  <path d="M 0.578125 0.980469 L 63.457031 0.980469 L 63.457031 66.859375 L 0.578125 66.859375 Z M 0.578125 0.980469 "/>
</clipPath>
<clipPath id="clip9">
  <rect width="64" height="67"/>
</clipPath>
<g id="surface13" clip-path="url(#clip9)">
<g clip-path="url(#clip10)" clip-rule="nonzero">
<path style=" stroke:none;fill-rule:nonzero;fill:rgb(10.205078%,10.205078%,10.205078%);fill-opacity:1;" d="M 63.457031 49.035156 C 58.960938 30.425781 55.40625 12.257813 55.761719 0.980469 C 55.574219 6.867188 14.480469 18.101563 8.421875 30.195313 C 4.390625 38.242188 2.8125 46.761719 0.578125 64.851563 C 35.578125 69.851563 43.578125 65.851563 63.457031 49.035156 "/>
</g>
</g>
<clipPath id="clip11">
  <path d="M 115.710938 19.542969 L 228.628906 19.542969 L 228.628906 53.9375 L 115.710938 53.9375 Z M 115.710938 19.542969 "/>
</clipPath>
<mask id="mask3">
  <g filter="url(#alpha)">
<rect x="0" y="0" width="391.09" height="438.85" style="fill:rgb(0%,0%,0%);fill-opacity:0.679993;stroke:none;"/>
  </g>
</mask>
<clipPath id="clip13">
  <path d="M 0.710938 0.542969 L 113.628906 0.542969 L 113.628906 34.9375 L 0.710938 34.9375 Z M 0.710938 0.542969 "/>
</clipPath>
<clipPath id="clip12">
  <rect width="114" height="35"/>
</clipPath>
<g id="surface16" clip-path="url(#clip12)">
<g clip-path="url(#clip13)" clip-rule="nonzero">
<path style=" stroke:none;fill-rule:nonzero;fill:rgb(10.205078%,10.205078%,10.205078%);fill-opacity:1;" d="M 70.128906 0.636719 C 54.367188 2.296875 37.074219 14.714844 20.378906 10.785156 C 20.664063 10.949219 20.914063 11.054688 21.128906 11.089844 C 17.222656 15.882813 4.613281 10.40625 0.710938 15.199219 C 6.433594 17.554688 14.09375 27.824219 20.234375 27.074219 C 19.058594 28.949219 17.980469 30.886719 17 32.871094 C 19.058594 32.3125 21.015625 31.4375 22.753906 30.132813 C 46.886719 10.46875 76.382813 9.574219 100.519531 31.027344 C 103.8125 34.320313 108.460938 35.246094 113.628906 34.851563 C 103.671875 16.421875 89.175781 -0.886719 70.128906 0.636719 "/>
</g>
</g>
<clipPath id="clip14">
  <path d="M 243.105469 2.027344 L 262.535156 2.027344 L 262.535156 91.507813 L 243.105469 91.507813 Z M 243.105469 2.027344 "/>
</clipPath>
<mask id="mask4">
  <g filter="url(#alpha)">
<rect x="0" y="0" width="391.09" height="438.85" style="fill:rgb(0%,0%,0%);fill-opacity:0.679993;stroke:none;"/>
  </g>
</mask>
<clipPath id="clip16">
  <path d="M 0.105469 0.0273438 L 19.53125 0.0273438 L 19.53125 89.507813 L 0.105469 89.507813 Z M 0.105469 0.0273438 "/>
</clipPath>
<clipPath id="clip15">
  <rect width="20" height="90"/>
</clipPath>
<g id="surface19" clip-path="url(#clip15)">
<g clip-path="url(#clip16)" clip-rule="nonzero">
<path style=" stroke:none;fill-rule:nonzero;fill:rgb(10.205078%,10.205078%,10.205078%);fill-opacity:1;" d="M 8.003906 0.753906 C 6.703125 0.472656 5.386719 0.234375 4.070313 0.0273438 C 5.195313 14.585938 4.570313 29.699219 0.21875 43.671875 C -0.878906 54.476563 6.085938 67.8125 9.933594 77.957031 C 11.34375 81.671875 12.1875 85.550781 12.746094 89.503906 C 22.492188 60.242188 22.4375 28.289063 8.003906 0.753906 "/>
</g>
</g>
<clipPath id="clip17">
  <path d="M 0 376 L 136 376 L 136 438.851563 L 0 438.851563 Z M 0 376 "/>
</clipPath>
<clipPath id="clip18">
  <path d="M 25.160156 361.652344 L 74.578125 361.652344 L 74.578125 393.851563 L 25.160156 393.851563 Z M 25.160156 361.652344 "/>
</clipPath>
<mask id="mask5">
  <g filter="url(#alpha)">
<rect x="0" y="0" width="391.09" height="438.85" style="fill:rgb(0%,0%,0%);fill-opacity:0.149994;stroke:none;"/>
  </g>
</mask>
<clipPath id="clip20">
  <path d="M 0.160156 0.652344 L 49.578125 0.652344 L 49.578125 32.851563 L 0.160156 32.851563 Z M 0.160156 0.652344 "/>
</clipPath>
<clipPath id="clip19">
  <rect width="50" height="33"/>
</clipPath>
<g id="surface22" clip-path="url(#clip19)">
<g clip-path="url(#clip20)" clip-rule="nonzero">
<path style=" stroke:none;fill-rule:nonzero;fill:rgb(3.137207%,3.137207%,3.137207%);fill-opacity:1;" d="M 5.714844 0.652344 L 49.578125 32.847656 L 2.058594 6.40625 L 0.160156 5.375 "/>
</g>
</g>
<clipPath id="clip21">
  <path d="M 168.066406 243.851563 L 245.414063 243.851563 L 245.414063 256.089844 L 168.066406 256.089844 Z M 168.066406 243.851563 "/>
</clipPath>
<mask id="mask6">
  <g filter="url(#alpha)">
<rect x="0" y="0" width="391.09" height="438.85" style="fill:rgb(0%,0%,0%);fill-opacity:0.149994;stroke:none;"/>
  </g>
</mask>
<clipPath id="clip23">
  <path d="M 0.0664063 0.851563 L 77.410156 0.851563 L 77.410156 13.089844 L 0.0664063 13.089844 Z M 0.0664063 0.851563 "/>
</clipPath>
<clipPath id="clip22">
  <rect width="78" height="14"/>
</clipPath>
<g id="surface25" clip-path="url(#clip22)">
<g clip-path="url(#clip23)" clip-rule="nonzero">
<path style=" stroke:none;fill-rule:nonzero;fill:rgb(3.137207%,3.137207%,3.137207%);fill-opacity:1;" d="M 1.804688 0.851563 L 77.410156 0.851563 L 0.0625 13.089844 "/>
</g>
</g>
<clipPath id="clip24">
  <path d="M 325.578125 388.851563 L 379.578125 388.851563 L 379.578125 399.851563 L 325.578125 399.851563 Z M 325.578125 388.851563 "/>
</clipPath>
<mask id="mask7">
  <g filter="url(#alpha)">
<rect x="0" y="0" width="391.09" height="438.85" style="fill:rgb(0%,0%,0%);fill-opacity:0.149994;stroke:none;"/>
  </g>
</mask>
<clipPath id="clip26">
  <path d="M 0.578125 0.851563 L 54.578125 0.851563 L 54.578125 11.851563 L 0.578125 11.851563 Z M 0.578125 0.851563 "/>
</clipPath>
<clipPath id="clip25">
  <rect width="55" height="12"/>
</clipPath>
<g id="surface28" clip-path="url(#clip25)">
<g clip-path="url(#clip26)" clip-rule="nonzero">
<path style=" stroke:none;fill-rule:nonzero;fill:rgb(3.137207%,3.137207%,3.137207%);fill-opacity:1;" d="M 53.597656 0.851563 L 0.578125 2.425781 L 54.578125 11.851563 "/>
</g>
</g>
<clipPath id="clip27">
  <path d="M 311 375 L 391.089844 375 L 391.089844 390 L 311 390 Z M 311 375 "/>
</clipPath>
<clipPath id="clip28">
  <path d="M 334.921875 221.851563 L 349.578125 221.851563 L 349.578125 232.089844 L 334.921875 232.089844 Z M 334.921875 221.851563 "/>
</clipPath>
<mask id="mask8">
  <g filter="url(#alpha)">
<rect x="0" y="0" width="391.09" height="438.85" style="fill:rgb(0%,0%,0%);fill-opacity:0.229996;stroke:none;"/>
  </g>
</mask>
<clipPath id="clip30">
  <path d="M 0.921875 0.851563 L 15.578125 0.851563 L 15.578125 11.089844 L 0.921875 11.089844 Z M 0.921875 0.851563 "/>
</clipPath>
<clipPath id="clip29">
  <rect width="16" height="12"/>
</clipPath>
<g id="surface31" clip-path="url(#clip29)">
<g clip-path="url(#clip30)" clip-rule="nonzero">
<path style=" stroke:none;fill-rule:nonzero;fill:rgb(10.205078%,10.205078%,10.205078%);fill-opacity:1;" d="M 1.539063 1.171875 L 15.578125 0.851563 L 0.921875 11.089844 "/>
</g>
</g>
<clipPath id="clip31">
  <path d="M 82.578125 322.851563 L 93.578125 322.851563 L 93.578125 385.851563 L 82.578125 385.851563 Z M 82.578125 322.851563 "/>
</clipPath>
<mask id="mask9">
  <g filter="url(#alpha)">
<rect x="0" y="0" width="391.09" height="438.85" style="fill:rgb(0%,0%,0%);fill-opacity:0.149994;stroke:none;"/>
  </g>
</mask>
<clipPath id="clip33">
  <path d="M 0.578125 0.851563 L 11.578125 0.851563 L 11.578125 63.851563 L 0.578125 63.851563 Z M 0.578125 0.851563 "/>
</clipPath>
<clipPath id="clip32">
  <rect width="12" height="64"/>
</clipPath>
<g id="surface30" clip-path="url(#clip32)">
<g clip-path="url(#clip33)" clip-rule="nonzero">
<path style=" stroke:none;fill-rule:nonzero;fill:rgb(3.137207%,3.137207%,3.137207%);fill-opacity:1;" d="M 9.578125 53.425781 L 11.578125 0.851563 L 0.578125 63.851563 L 9.578125 54.851563 "/>
</g>
</g>
</defs>
<g id="surface1">
<path style=" stroke:none;fill-rule:nonzero;fill:rgb(80.076599%,80.076599%,80.076599%);fill-opacity:1;" d="M 332.578125 179.851563 L 323.578125 179.851563 L 323.578125 146.351563 C 323.578125 143.863281 325.59375 141.851563 328.078125 141.851563 C 330.5625 141.851563 332.578125 143.863281 332.578125 146.351563 "/>
<path style=" stroke:none;fill-rule:nonzero;fill:rgb(19.993591%,19.993591%,19.993591%);fill-opacity:1;" d="M 329.578125 202.851563 L 324.578125 202.851563 C 317.980469 202.851563 312.578125 197.449219 312.578125 190.851563 L 312.578125 181.851563 C 312.578125 175.25 317.980469 169.851563 324.578125 169.851563 L 329.578125 169.851563 C 336.179688 169.851563 341.578125 175.25 341.578125 181.851563 L 341.578125 190.851563 C 341.578125 197.449219 336.179688 202.851563 329.578125 202.851563 "/>
<path style=" stroke:none;fill-rule:nonzero;fill:rgb(11.376953%,89.451599%,67.381287%);fill-opacity:1;" d="M 359.046875 329.378906 C 362.261719 314.328125 353.601563 299.28125 338.976563 294.503906 L 341.578125 279.851563 C 322.558594 273.636719 244.28125 256.851563 243.578125 276.851563 L 300.996094 424.65625 C 319.195313 419.53125 337.503906 414.382813 355.808594 409.15625 "/>
<g clip-path="url(#clip1)" clip-rule="nonzero">
<path style=" stroke:none;fill-rule:nonzero;fill:rgb(11.376953%,89.451599%,67.381287%);fill-opacity:1;" d="M 329.578125 438.851563 L 91.578125 438.851563 L 91.578125 369.351563 C 91.578125 310.53125 139.261719 262.851563 198.078125 262.851563 L 223.078125 262.851563 C 281.894531 262.851563 329.578125 310.53125 329.578125 369.351563 "/>
</g>
<g clip-path="url(#clip2)" clip-rule="nonzero">
<use xlink:href="#surface7" transform="matrix(1,0,0,1,132,343)" mask="url(#mask0)"/>
</g>
<g clip-path="url(#clip5)" clip-rule="nonzero">
<use xlink:href="#surface10" transform="matrix(1,0,0,1,90,275)" mask="url(#mask1)"/>
</g>
<path style=" stroke:none;fill-rule:nonzero;fill:rgb(83.59375%,59.959412%,45.092773%);fill-opacity:1;" d="M 128.664063 103.148438 C 125.578125 102.652344 122.109375 102.761719 119.730469 104.792969 C 115.902344 108.0625 116.925781 114.226563 118.960938 118.835938 C 119.554688 120.171875 120.203125 121.480469 120.90625 122.761719 C 125.542969 131.183594 132.566406 138.292969 140.964844 142.980469 C 153.898438 150.199219 158.566406 142.382813 155.09375 130.015625 C 151.613281 117.632813 141.878906 105.265625 128.664063 103.148438 "/>
<path style=" stroke:none;fill-rule:nonzero;fill:rgb(99.21875%,70.896912%,52.929688%);fill-opacity:1;" d="M 243.359375 236.484375 C 236.136719 209.847656 227.207031 175.550781 227.761719 157.980469 C 227.578125 163.867188 186.480469 175.101563 180.421875 187.195313 C 175.613281 196.792969 172.753906 218.390625 170.246094 240.390625 C 194.617188 245.042969 218.988281 239 243.359375 236.484375 "/>
<path style=" stroke:none;fill-rule:nonzero;fill:rgb(11.376953%,89.451599%,67.381287%);fill-opacity:1;" d="M 170.246094 240.390625 C 169.539063 246.574219 166.265625 267.859375 165.578125 273.851563 C 163.1875 294.742188 181.894531 298.046875 202.921875 298.503906 C 203.1875 298.511719 203.460938 298.515625 203.730469 298.523438 C 224.40625 298.960938 254.625 293.507813 253.578125 272.851563 C 251.949219 266.234375 246.183594 246.902344 243.355469 236.484375 C 218.988281 239 194.617188 245.039063 170.246094 240.390625 "/>
<g clip-path="url(#clip8)" clip-rule="nonzero">
<use xlink:href="#surface13" transform="matrix(1,0,0,1,172,157)" mask="url(#mask2)"/>
</g>
<path style=" stroke:none;fill-rule:nonzero;fill:rgb(99.21875%,70.896912%,52.929688%);fill-opacity:1;" d="M 145.359375 147.386719 C 148.847656 171.078125 155.054688 197.371094 174.53125 209.851563 C 196.640625 224.015625 227.230469 212.585938 243.089844 191.136719 C 258.945313 169.683594 263.21875 141.269531 264.589844 114.105469 C 265.371094 98.636719 265.355469 82.878906 261.3125 67.972656 C 253.453125 39.015625 228.34375 15.03125 199.785156 13.324219 C 173.871094 11.773438 149.886719 30.429688 140.695313 55.449219 C 131.074219 81.640625 141.398438 120.441406 145.359375 147.386719 "/>
<path style=" stroke:none;fill-rule:nonzero;fill:rgb(99.21875%,70.896912%,52.929688%);fill-opacity:1;" d="M 275.726563 101.847656 C 279.050781 101.316406 282.785156 101.433594 285.347656 103.621094 C 289.472656 107.140625 288.367188 113.78125 286.175781 118.742188 C 285.539063 120.183594 284.839844 121.59375 284.082031 122.972656 C 279.085938 132.046875 271.523438 139.703125 262.476563 144.75 C 248.546875 152.523438 243.519531 144.109375 247.261719 130.785156 C 251.007813 117.449219 261.492188 104.132813 275.726563 101.847656 "/>
<path style=" stroke:none;fill-rule:nonzero;fill:rgb(19.993591%,19.993591%,19.993591%);fill-opacity:1;" d="M 263.308594 133.835938 C 253.785156 117.703125 259.578125 96.578125 252.933594 79.066406 C 249.070313 68.886719 242.066406 55.488281 243.226563 44.664063 C 238.566406 50.101563 229.671875 55.476563 222.527344 55.972656 C 206.109375 57.113281 192.628906 47.5 176.1875 48.238281 C 159.75 48.976563 139.859375 60.285156 126.195313 69.453125 C 127.675781 61.175781 130.765625 53.191406 135.234375 46.070313 C 129.09375 46.824219 121.433594 36.550781 115.710938 34.199219 C 119.613281 29.40625 132.222656 34.882813 136.128906 30.089844 C 132.605469 29.464844 118.429688 10.871094 114.90625 10.246094 C 156.546875 25.980469 200.878906 -5.0625 244.304688 0.730469 C 250.390625 1.539063 256.617188 2.710938 261.785156 6.023438 C 278.511719 16.75 282.695313 46.503906 278.863281 64.183594 C 276.296875 76.019531 271.640625 87.265625 268.117188 98.824219 C 265.734375 106.644531 258.652344 125.945313 263.308594 133.835938 "/>
<path style=" stroke:none;fill-rule:nonzero;fill:rgb(19.993591%,19.993591%,19.993591%);fill-opacity:1;" d="M 238.761719 184.726563 C 238.578125 184.640625 238.40625 184.570313 238.257813 184.546875 C 238.425781 184.609375 238.59375 184.664063 238.761719 184.726563 "/>
<path style=" stroke:none;fill-rule:nonzero;fill:rgb(10.205078%,10.205078%,10.205078%);fill-opacity:1;" d="M 228.628906 53.851563 C 223.460938 54.246094 218.8125 53.320313 215.519531 50.027344 C 191.382813 28.574219 161.886719 29.46875 137.753906 49.132813 C 136.011719 50.4375 134.058594 51.3125 132 51.871094 C 129.253906 57.421875 127.289063 63.355469 126.195313 69.453125 C 139.859375 60.285156 159.75 48.976563 176.1875 48.238281 C 192.628906 47.5 206.109375 57.113281 222.523438 55.972656 C 224.570313 55.832031 226.761719 55.285156 228.953125 54.457031 C 228.84375 54.257813 228.734375 54.054688 228.628906 53.851563 "/>
<g clip-path="url(#clip11)" clip-rule="nonzero">
<use xlink:href="#surface16" transform="matrix(1,0,0,1,115,19)" mask="url(#mask3)"/>
</g>
<g clip-path="url(#clip14)" clip-rule="nonzero">
<use xlink:href="#surface19" transform="matrix(1,0,0,1,243,2)" mask="url(#mask4)"/>
</g>
<path style=" stroke:none;fill-rule:nonzero;fill:rgb(10.205078%,10.205078%,10.205078%);fill-opacity:1;" d="M 261.785156 6.917969 C 258.511719 4.820313 254.816406 3.585938 251.003906 2.753906 C 265.4375 30.289063 265.492188 62.242188 255.746094 91.503906 C 257.808594 106.207031 255.804688 122.019531 263.308594 134.730469 C 258.652344 126.839844 265.734375 107.539063 268.117188 99.71875 C 271.640625 88.160156 276.300781 76.914063 278.863281 65.078125 C 282.695313 47.398438 278.511719 17.644531 261.785156 6.917969 "/>
<path style=" stroke:none;fill-rule:nonzero;fill:rgb(3.137207%,3.137207%,3.137207%);fill-opacity:1;" d="M 223.011719 97.246094 C 222.855469 92.578125 220.566406 88.871094 217.902344 88.960938 C 215.234375 89.050781 213.199219 92.90625 213.355469 97.570313 C 213.511719 102.234375 215.800781 105.945313 218.464844 105.855469 C 221.132813 105.769531 223.167969 101.910156 223.011719 97.246094 "/>
<path style=" stroke:none;fill-rule:nonzero;fill:rgb(3.137207%,3.137207%,3.137207%);fill-opacity:1;" d="M 175.101563 98.851563 C 174.945313 94.1875 172.65625 90.476563 169.992188 90.5625 C 167.324219 90.652344 165.289063 94.507813 165.445313 99.175781 C 165.601563 103.839844 167.890625 107.550781 170.558594 107.460938 C 173.222656 107.371094 175.257813 103.519531 175.101563 98.851563 "/>
<path style=" stroke:none;fill-rule:nonzero;fill:rgb(19.993591%,19.993591%,19.993591%);fill-opacity:1;" d="M 208.921875 79.511719 C 211.796875 76.183594 216.367188 74.859375 220.742188 74.378906 C 224.917969 73.921875 239.066406 81.53125 231.3125 84.113281 C 228.792969 84.953125 223.285156 81.5625 220.691406 80.945313 C 219.078125 80.5625 210.039063 78.214844 208.921875 79.511719 "/>
<path style=" stroke:none;fill-rule:nonzero;fill:rgb(19.993591%,19.993591%,19.993591%);fill-opacity:1;" d="M 151.023438 84.023438 C 153.144531 80.167969 157.339844 77.921875 161.515625 76.539063 C 165.503906 75.21875 180.929688 79.710938 173.886719 83.851563 C 171.597656 85.199219 165.503906 83.03125 162.839844 82.972656 C 161.179688 82.933594 151.851563 82.523438 151.023438 84.023438 "/>
<path style=" stroke:none;fill-rule:nonzero;fill:rgb(100%,100%,100%);fill-opacity:1;" d="M 187.640625 185.964844 C 194.367188 192 204.4375 191.667969 210.21875 184.484375 C 212.363281 181.816406 208.589844 178 206.425781 180.691406 C 202.550781 185.507813 196.171875 186.425781 191.429688 182.171875 C 188.867188 179.871094 185.0625 183.652344 187.640625 185.964844 "/>
<path style=" stroke:none;fill-rule:nonzero;fill:rgb(19.993591%,19.993591%,19.993591%);fill-opacity:1;" d="M 197.007813 171.171875 C 198.855469 170.605469 200.769531 170.011719 202.691406 170.234375 C 204.238281 170.417969 205.671875 171.121094 207.09375 171.761719 C 211.378906 173.691406 215.882813 175.136719 220.484375 176.070313 C 223.292969 176.636719 225.457031 173.636719 224 171.175781 C 223.359375 170.089844 222.828125 169.210938 222.59375 168.921875 C 220.4375 166.28125 217.976563 163.886719 215.277344 161.804688 C 210.539063 158.144531 203.960938 154.296875 197.726563 154.742188 C 189.257813 155.351563 176.214844 165.023438 171.210938 173.726563 C 170.179688 175.519531 171.675781 177.6875 173.71875 177.339844 C 181.570313 175.996094 189.496094 173.476563 197.007813 171.171875 "/>
<path style=" stroke:none;fill-rule:nonzero;fill:rgb(11.376953%,89.451599%,67.381287%);fill-opacity:1;" d="M 250.578125 243.851563 L 163.578125 243.851563 C 159.714844 243.851563 156.578125 240.714844 156.578125 236.851563 C 156.578125 232.984375 159.714844 229.851563 163.578125 229.851563 L 250.578125 229.851563 C 254.445313 229.851563 257.578125 232.984375 257.578125 236.851563 C 257.578125 240.714844 254.445313 243.851563 250.578125 243.851563 "/>
<g clip-path="url(#clip17)" clip-rule="nonzero">
<path style=" stroke:none;fill-rule:nonzero;fill:rgb(99.21875%,70.896912%,52.929688%);fill-opacity:1;" d="M 7.996094 386.496094 C -10.023438 406.792969 4.382813 438.851563 31.523438 438.851563 L 135.578125 438.851563 L 60.578125 407.851563 L 75.859375 392.542969 C 55.910156 387.46875 35.828125 383.492188 16.761719 376.628906 "/>
</g>
<path style=" stroke:none;fill-rule:nonzero;fill:rgb(11.376953%,89.451599%,67.381287%);fill-opacity:1;" d="M 144.109375 293.113281 L 197.578125 278.851563 C 187.722656 261.4375 116.582031 268.554688 102.578125 282.851563 L 16.761719 376.628906 C 35.832031 383.492188 53.625 389.777344 73.578125 394.847656 L 135.414063 332.402344 C 147.9375 323.457031 151.6875 306.503906 144.109375 293.113281 "/>
<g clip-path="url(#clip18)" clip-rule="nonzero">
<use xlink:href="#surface22" transform="matrix(1,0,0,1,25,361)" mask="url(#mask5)"/>
</g>
<g clip-path="url(#clip21)" clip-rule="nonzero">
<use xlink:href="#surface25" transform="matrix(1,0,0,1,168,243)" mask="url(#mask6)"/>
</g>
<path style=" stroke:none;fill-rule:nonzero;fill:rgb(99.21875%,70.896912%,52.929688%);fill-opacity:1;" d="M 367.324219 215.191406 L 336.175781 211.902344 L 325.167969 389.328125 C 342.699219 385.949219 360.183594 380.492188 377.703125 376.511719 "/>
<path style=" stroke:none;fill-rule:nonzero;fill:rgb(11.376953%,89.451599%,67.381287%);fill-opacity:1;" d="M 377.703125 376.511719 C 360.183594 380.492188 342.699219 385.949219 325.167969 389.328125 L 324.054688 407.269531 C 323.167969 421.601563 334.054688 434.074219 348.804688 435.632813 C 365.996094 437.445313 380.746094 423.828125 379.671875 407.132813 "/>
<path style=" stroke:none;fill-rule:nonzero;fill:rgb(99.21875%,70.896912%,52.929688%);fill-opacity:1;" d="M 367.878906 225 L 347.160156 225.4375 C 335.714844 225.683594 326.242188 216.605469 326 205.160156 L 325.914063 201.058594 C 325.671875 189.613281 334.746094 180.144531 346.1875 179.898438 C 357.632813 179.65625 367.105469 188.734375 367.347656 200.175781 "/>
<g clip-path="url(#clip24)" clip-rule="nonzero">
<use xlink:href="#surface28" transform="matrix(1,0,0,1,325,388)" mask="url(#mask7)"/>
</g>
<g clip-path="url(#clip27)" clip-rule="nonzero">
<path style=" stroke:none;fill-rule:nonzero;fill:rgb(11.376953%,89.451599%,67.381287%);fill-opacity:1;" d="M 384.089844 389.425781 L 318.652344 389.425781 C 314.789063 389.425781 311.652344 386.289063 311.652344 382.425781 C 311.652344 378.558594 314.789063 375.425781 318.652344 375.425781 L 384.089844 375.425781 C 387.953125 375.425781 391.089844 378.558594 391.089844 382.425781 C 391.089844 386.289063 387.953125 389.425781 384.089844 389.425781 "/>
</g>
<g clip-path="url(#clip28)" clip-rule="nonzero">
<use xlink:href="#surface31" transform="matrix(1,0,0,1,334,221)" mask="url(#mask8)"/>
</g>
<g clip-path="url(#clip31)" clip-rule="nonzero">
<use xlink:href="#surface30" transform="matrix(1,0,0,1,82,322)" mask="url(#mask9)"/>
</g>
<path style=" stroke:none;fill-rule:nonzero;fill:rgb(11.376953%,89.451599%,67.381287%);fill-opacity:1;" d="M 67.503906 405.847656 L 10.835938 373.128906 C 7.488281 371.199219 6.339844 366.914063 8.273438 363.566406 C 10.207031 360.21875 14.488281 359.074219 17.835938 361.007813 L 74.503906 393.722656 C 77.851563 395.65625 79 399.9375 77.066406 403.285156 C 75.132813 406.632813 70.851563 407.78125 67.503906 405.847656 "/>
</g>
</svg>
