<?xml version="1.0" encoding="utf-8"?>
<!-- Generator: Adobe Illustrator 26.3.1, SVG Export Plug-In . SVG Version: 6.00 Build 0)  -->
<svg version="1.1" id="Слой_1" xmlns="http://www.w3.org/2000/svg" xmlns:xlink="http://www.w3.org/1999/xlink" x="0px" y="0px"
	 viewBox="0 0 1920 1080" style="enable-background:new 0 0 1920 1080;" xml:space="preserve">
<style type="text/css">
	.st0{fill:#00E09E;}
	.st1{fill:transparent;}
	.st2{fill:none;stroke:#FFFFFF;stroke-width:50;stroke-linecap:square;stroke-linejoin:bevel;stroke-miterlimit:10;}
	.st3{fill:none;stroke:#00E398;stroke-width:50;stroke-linecap:square;stroke-linejoin:bevel;stroke-miterlimit:10;}
</style>
<rect x="-60.2" y="-2656" width="2047.2" height="1179"/>
<rect x="-60" y="-1408" class="st0" width="2047.2" height="1179"/>
<rect x="-60" y="-49" class="st1" width="2047.2" height="1179"/>
<polyline class="st2" points="499.1,-1255.5 695.1,-1256.5 1023.3,-1203.2 843.1,-992.3 787,-1136.2 658.7,-1033.6 405.7,-1043.2 
	531,-804 685.9,-915.1 834.3,-827.1 1009,-992.3 972,-540.5 672.4,-748.9 567.4,-702.2 703,-571.6 604.4,-505.7 372.6,-712.7 
	283.6,-1148 96.9,-1013.5 188.3,-705.9 394.9,-518.8 170.5,-529.8 96.9,-381 724.3,-381 "/>
<polyline class="st3" points="499.1,-2496.5 695.1,-2497.5 1023.3,-2444.2 843.1,-2233.3 787,-2377.2 658.7,-2274.6 405.7,-2284.2 
	531,-2045 685.9,-2156.1 834.3,-2068.1 1009,-2233.3 972,-1781.5 672.4,-1989.9 567.4,-1943.2 703,-1812.6 604.4,-1746.7 
	372.6,-1953.7 283.6,-2389 96.9,-2254.5 188.3,-1946.9 394.9,-1759.8 170.5,-1770.8 96.9,-1622 724.3,-1622 "/>
<polyline class="st3" points="499.1,123.5 695.1,122.5 1023.3,175.8 843.1,386.7 787,242.8 658.7,345.4 405.7,335.8 531,575 
	685.9,463.9 834.3,551.9 1009,386.7 972,838.5 672.4,630.1 567.4,676.8 703,807.4 604.4,873.3 372.6,666.3 283.6,231 96.9,365.5 
	188.3,673.1 394.9,860.2 170.5,849.2 96.9,998 724.3,998 "/>
<polyline class="st3" points="2051,-65 2124.3,-65 2028.1,126.2 1666.2,235.7 1353.3,160.3 1129.4,782.7 1323.8,877.4 1256,1186.3 
	1588.9,962.6 1681.7,1116.9 1818.5,1113.1 "/>
<polyline class="st3" points="2051,-2771 2124.3,-2771 2028.1,-2579.8 1666.2,-2470.3 1353.3,-2545.7 1129.4,-1923.3 
	1323.8,-1828.6 1256,-1519.7 1588.9,-1743.4 1681.7,-1589.1 1818.5,-1592.9 "/>
<polyline class="st2" points="2051,-1444 2124.3,-1444 2028.1,-1252.8 1666.2,-1143.3 1353.3,-1218.7 1129.4,-596.3 1323.8,-501.6 
	1256,-192.7 1588.9,-416.4 1681.7,-262.1 1818.5,-265.9 "/>
</svg>
